<?xml version="1.0" encoding="UTF-8" standalone="no"?>
<!DOCTYPE svg PUBLIC "-//W3C//DTD SVG 1.1//EN"
 "http://www.w3.org/Graphics/SVG/1.1/DTD/svg11.dtd">
<!-- Generated by graphviz version 2.38.0 (20140413.2041)
 -->
<!-- Title: G Pages: 1 -->
<svg width="171pt" height="474pt"
 viewBox="0.00 0.00 171.00 474.00" xmlns="http://www.w3.org/2000/svg" xmlns:xlink="http://www.w3.org/1999/xlink">
<g id="graph0" class="graph" transform="scale(1 1) rotate(0) translate(4 470)">
<title>G</title>
<polygon fill="white" stroke="none" points="-4,4 -4,-470 167,-470 167,4 -4,4"/>
<g id="clust1" class="cluster"><title>cluster_Global</title>
<path fill="none" stroke="gray" d="M20,-8C20,-8 143,-8 143,-8 149,-8 155,-14 155,-20 155,-20 155,-446 155,-446 155,-452 149,-458 143,-458 143,-458 20,-458 20,-458 14,-458 8,-452 8,-446 8,-446 8,-20 8,-20 8,-14 14,-8 20,-8"/>
<text text-anchor="middle" x="81.5" y="-445.2" font-family="Times,serif" font-size="11.00" fill="gray">Global</text>
</g>
<!-- \\elasticsearch -->
<g id="node1" class="node"><title>\\elasticsearch</title>
<polygon fill="none" stroke="black" points="133.5,-430 29.5,-430 29.5,-394 133.5,-394 133.5,-430"/>
<text text-anchor="middle" x="81.5" y="-409.2" font-family="Courier,monospace" font-size="11.00">elasticsearch</text>
</g>
<!-- \\compararRegistros -->
<g id="node2" class="node"><title>\\compararRegistros</title>
<polygon fill="none" stroke="black" points="147,-376 16,-376 16,-340 147,-340 147,-376"/>
<text text-anchor="middle" x="81.5" y="-355.2" font-family="Courier,monospace" font-size="11.00">compararRegistros</text>
</g>
<!-- \\paginaInicial -->
<g id="node3" class="node"><title>\\paginaInicial</title>
<polygon fill="none" stroke="black" points="133.5,-322 29.5,-322 29.5,-286 133.5,-286 133.5,-322"/>
<text text-anchor="middle" x="81.5" y="-301.2" font-family="Courier,monospace" font-size="11.00">paginaInicial</text>
</g>
<!-- \\facets -->
<g id="node4" class="node"><title>\\facets</title>
<polygon fill="none" stroke="black" points="110,-268 53,-268 53,-232 110,-232 110,-268"/>
<text text-anchor="middle" x="81.5" y="-247.2" font-family="Courier,monospace" font-size="11.00">facets</text>
</g>
<!-- \\facets_users -->
<g id="node5" class="node"><title>\\facets_users</title>
<polygon fill="none" stroke="black" points="130.5,-214 32.5,-214 32.5,-178 130.5,-178 130.5,-214"/>
<text text-anchor="middle" x="81.5" y="-193.2" font-family="Courier,monospace" font-size="11.00">facets_users</text>
</g>
<!-- \\dadosExternos -->
<g id="node6" class="node"><title>\\dadosExternos</title>
<polygon fill="none" stroke="black" points="133.5,-160 29.5,-160 29.5,-124 133.5,-124 133.5,-160"/>
<text text-anchor="middle" x="81.5" y="-139.2" font-family="Courier,monospace" font-size="11.00">dadosExternos</text>
</g>
<!-- \\processaLattes -->
<g id="node7" class="node"><title>\\processaLattes</title>
<polygon fill="none" stroke="black" points="137,-106 26,-106 26,-70 137,-70 137,-106"/>
<text text-anchor="middle" x="81.5" y="-85.2" font-family="Courier,monospace" font-size="11.00">processaLattes</text>
</g>
<!-- \\z3950 -->
<g id="node8" class="node"><title>\\z3950</title>
<polygon fill="none" stroke="black" points="108.5,-52 54.5,-52 54.5,-16 108.5,-16 108.5,-52"/>
<text text-anchor="middle" x="81.5" y="-31.2" font-family="Courier,monospace" font-size="11.00">z3950</text>
</g>
</g>
</svg>
